<svg width="117" height="104" viewBox="0 0 117 104" fill="none" xmlns="http://www.w3.org/2000/svg">
<g id="quote-left 1" clip-path="url(#clip0_2_507)">
<g id="Group">
<g id="Group_2">
<path id="Vector" d="M40.6091 48.1996L24.9547 48.1996C23.091 48.1996 21.5066 47.6253 20.2019 46.4762C18.898 45.3271 18.2452 43.932 18.2452 42.2901V40.3214C18.2452 35.9714 19.9927 32.2581 23.4873 29.1802C26.9817 26.1033 31.1984 24.5642 36.1368 24.5642H40.6091C41.8202 24.5642 42.8681 24.1742 43.7537 23.3948C44.6388 22.615 45.0813 21.6921 45.0813 20.6252V12.7458C45.0813 11.6791 44.6385 10.7553 43.7537 9.97551C42.8683 9.1968 41.8204 8.80615 40.6091 8.80615H36.1368C31.291 8.80615 26.6679 9.63789 22.2647 11.299C17.8619 12.9612 14.0537 15.2081 10.8386 18.0398C7.62369 20.8703 5.07338 24.2246 3.18641 28.1029C1.29944 31.9807 0.355835 36.0536 0.355835 40.3211L0.355835 83.6525C0.355835 86.937 1.65975 89.7259 4.26881 92.0247C6.87811 94.3223 10.047 95.4709 13.7739 95.4709H40.6108C44.3375 95.4709 47.5053 94.3223 50.1149 92.0247C52.7235 89.7259 54.0281 86.937 54.0281 83.6525V60.0178C54.0281 56.7339 52.7235 53.9451 50.1132 51.646C47.5049 49.3487 44.3358 48.1996 40.6091 48.1996Z" fill="#151515"/>
<path id="Vector_2" d="M112.733 51.646C110.124 49.3487 106.956 48.1996 103.229 48.1996L87.5745 48.1996C85.7118 48.1996 84.1259 47.6253 82.8234 46.4762C81.5183 45.3271 80.8667 43.932 80.8667 42.2901V40.3214C80.8667 35.9714 82.6141 32.2581 86.1071 29.1802C89.6003 26.1033 93.8167 24.5642 98.7575 24.5642H103.229C104.44 24.5642 105.489 24.1742 106.374 23.3948C107.258 22.615 107.702 21.6921 107.702 20.6252V12.7458C107.702 11.6791 107.258 10.7553 106.374 9.97551C105.489 9.1968 104.44 8.80615 103.229 8.80615H98.7575C93.909 8.80615 89.2869 9.63789 84.8825 11.299C80.4804 12.9612 76.6735 15.2081 73.4583 18.0398C70.2432 20.8703 67.6917 24.2246 65.8054 28.1029C63.919 31.9807 62.9741 36.0536 62.9741 40.3211V83.6525C62.9741 86.937 64.2793 89.7259 66.8876 92.0247C69.4962 94.3223 72.6643 95.4709 76.3917 95.4709H103.227C106.955 95.4709 110.123 94.3223 112.731 92.0247C115.341 89.7259 116.644 86.937 116.644 83.6525V60.0178C116.644 56.7337 115.341 53.9451 112.733 51.646Z" fill="#151515"/>
</g>
</g>
</g>
<defs>
<clipPath id="clip0_2_507">
<rect width="116.288" height="102.422" fill="white" transform="translate(0.355835 0.927246)"/>
</clipPath>
</defs>
</svg>
